<svg width="14" height="10" viewBox="0 0 14 10" fill="none" xmlns="http://www.w3.org/2000/svg">
<path fill-rule="evenodd" clip-rule="evenodd" d="M0.21967 0.21967C0.512563 -0.0732233 0.987437 -0.0732233 1.28033 0.21967L5 3.93934L7.76114 1.17821C7.92079 1.01855 8.14387 0.939319 8.36846 0.962498C8.59305 0.985676 8.79525 1.1088 8.91893 1.29769C10.0325 2.99835 10.9516 4.85818 11.6372 6.85404L12.3655 5.59253C12.5726 5.23381 13.0313 5.1109 13.39 5.31801C13.7488 5.52512 13.8717 5.98381 13.6646 6.34253L12.0736 9.0982C11.9741 9.27047 11.8103 9.39617 11.6182 9.44765C11.426 9.49913 11.2213 9.47218 11.049 9.37272L8.29337 7.78173C7.93465 7.57463 7.81175 7.11593 8.01885 6.75721C8.22596 6.3985 8.68465 6.27559 9.04337 6.4827L10.1398 7.11569C9.61097 5.62542 8.94346 4.21817 8.1561 2.90456L5.53033 5.53033C5.23744 5.82322 4.76256 5.82322 4.46967 5.53033L0.21967 1.28033C-0.0732233 0.987437 -0.0732233 0.512563 0.21967 0.21967Z" fill="#0F172A"/>
</svg>
