<svg xmlns="http://www.w3.org/2000/svg" width="64" height="64" fill="none" viewBox="0 0 64 64"><clipPath id="a" width="64" height="64" x="0" y="0" maskUnits="userSpaceOnUse" style="mask-type:luminance"><path fill="#fff" d="M64 0H0v64h64z" style="fill:#fff;fill-opacity:1"></path></clipPath><g clip-path="url(#a)"><path fill="#fff" d="M38.667 25.333V.7a32.1 32.1 0 0 0-13.334 0v24.633H.7a32.1 32.1 0 0 0 0 13.334h24.633V63.3a32.1 32.1 0 0 0 13.334 0V38.667H63.3a32.1 32.1 0 0 0 0-13.334z" style="fill:#fff;fill-opacity:1"></path><path fill="#f0263c" d="m38.667 36-1.334 1.333L36 38.667h-.666l-.667-1.334h-5.334l-.666 1.334H28l-1.333-1.334L25.333 36v2l1.334.667.666 1.333h2L30 38.667h4L34.667 40h2l.666-1.333L38.668 38zM38.667.7v24.633H63.3C60.688 13.012 50.988 3.313 38.667.7" style="fill:#f0263c;fill:color(display-p3 .9412 .149 .2353);fill-opacity:1"></path><path fill="#191977" d="M38.667 63.3C50.988 60.688 60.688 50.988 63.3 38.667H38.667zM25.333.7C13.012 3.312 3.313 13.012.7 25.333h24.633z" style="fill:#191977;fill:color(display-p3 .098 .098 .4667);fill-opacity:1"></path><path fill="#f0263c" d="M25.333 63.3V38.667H.7C3.312 50.988 13.012 60.687 25.333 63.3" style="fill:#f0263c;fill:color(display-p3 .9412 .149 .2353);fill-opacity:1"></path><path fill="#191977" d="M30 25.333 30.667 24h2.666L34 25.333h2l1.333 1.334H40l-2.667-1.334V24h-2.666v-1.333h-5.334V24h-2.666v1.333L24 26.667h2.667L28 25.333z" style="fill:#191977;fill:color(display-p3 .098 .098 .4667);fill-opacity:1"></path><path fill="#f0263c" d="M33.6 30.267 34.667 30v1.333H36V28l1.334-1.333H36zM33 28.667h-.333v.666l.266.4L36 26.667h-3.333V28H33z" style="fill:#f0263c;fill:color(display-p3 .9412 .149 .2353);fill-opacity:1"></path><path fill="#1e5b00" d="M26.667 35.333V34L28 32.667 26.667 32 28 30h-1.333L28 28.667h-1.333v-1.334l-1.334 1.334H24l1.333 2.666H24l1.333 1.334H24L25.333 34 24 34.667l1.333.666 4 2-1.333-2zM36 30l1.334 2-1.334.667L37.334 34v1.333H36l-1.333 2 4-2L40 34.667 38.667 34 40 32.667h-1.333L40 31.333h-1.333L40 28.667h-1.333l-1.334-1.334v1.334H36L37.334 30z" style="fill:#1e5b00;fill:color(display-p3 .1176 .3569 0);fill-opacity:1"></path><path fill="#191977" d="M34.667 33.333v1.334h-2v2l2-.667L36 34.667v-2h-1.333zM28 31.333h1.333v1.334h1.334L30 31.333l.74-.555-.34-.511-2.4-3.6h-1.333L28 28v3.333" style="fill:#191977;fill:color(display-p3 .098 .098 .4667);fill-opacity:1"></path><path fill="#191977" d="M31.333 28.667H31V28h.333v-1.333H28L31.333 30zM34.667 32.667V30l-1.067.267-.155.233.555.833V32l-2.666 2v.167l.666.5z" style="fill:#191977;fill:color(display-p3 .098 .098 .4667);fill-opacity:1"></path><path fill="#f0263c" d="M34.667 33.333v-.666l-2.667 2h2.667zM31.333 34l-.666-1.333H28v2L29.333 36l2 .667v-2H32l-.667-.5z" style="fill:#f0263c;fill:color(display-p3 .9412 .149 .2353);fill-opacity:1"></path><path fill="#ffd400" d="m33.445 30.5.155-.233 2.4-3.6-3.067 3.066zM31.524 30.19l-.19-.19L28 26.667l2.4 3.6.34.51zM31 28.667h.667v1.416l.666-.5v-.916H33V28h-.667v-.667h-.666V28H31z" style="fill:#ffd400;fill:color(display-p3 1 .8314 0);fill-opacity:1"></path><path fill="#f0f0f0" d="m31.333 33.333 2.667-2-.556-.833-.51-.767-.267-.4-.334.25-.666.5-.143.108-.783.587-.741.555z" style="fill:#f0f0f0;fill:color(display-p3 .9412 .9412 .9412);fill-opacity:1"></path><path fill="#999" d="M34 32v-.667l-2.667 2-1.333-2 .667 1.334.666 1.333z" style="fill:#999;fill:color(display-p3 .6 .6 .6);fill-opacity:1"></path></g></svg>