<svg xmlns="http://www.w3.org/2000/svg" width="64" height="64" fill="none" viewBox="0 0 64 64"><clipPath id="a" width="64" height="64" x="0" y="0" maskUnits="userSpaceOnUse" style="mask-type:luminance"><path fill="#fff" d="M64 0H0v64h64z" style="fill:#fff;fill-opacity:1"></path></clipPath><g clip-path="url(#a)"><path fill="#191977" d="M62.172 42.667H1.828C6.222 55.094 18.068 64 32 64s25.778-8.906 30.172-21.333" style="fill:#191977;fill:color(display-p3 .098 .098 .4667);fill-opacity:1"></path><path fill="#f0263c" d="M1.828 21.333h60.344C57.778 8.906 45.932 0 32 0S6.222 8.906 1.828 21.333" style="fill:#f0263c;fill:color(display-p3 .9412 .149 .2353);fill-opacity:1"></path><path fill="#fff" d="M0 32c0 3.741.648 7.33 1.828 10.667h60.344A32 32 0 0 0 64 32c0-3.741-.648-7.33-1.828-10.667H1.828A32 32 0 0 0 0 32" style="fill:#fff;fill-opacity:1"></path><path fill="#f0263c" d="M34.667 32h-5.334v5.333h5.334z" style="fill:#f0263c;fill:color(display-p3 .9412 .149 .2353);fill-opacity:1"></path><path fill="#fff" d="M34.667 26.667h-5.334V32h5.334z" style="fill:#fff;fill-opacity:1"></path><path fill="#f0263c" d="M34.667 21.333h-5.334v5.334h5.334zM40 26.667h-5.333V32H40z" style="fill:#f0263c;fill:color(display-p3 .9412 .149 .2353);fill-opacity:1"></path><path fill="#fff" d="M40 21.333h-5.333v5.334H40zM24 32v-5.333h-5.333V32H24" style="fill:#fff;fill-opacity:1"></path><path fill="#f0263c" d="M24 21.333h-5.333v5.334H24zM29.333 26.667H24V32h5.333z" style="fill:#f0263c;fill:color(display-p3 .9412 .149 .2353);fill-opacity:1"></path><path fill="#fff" d="M29.333 21.333H24v5.334h5.333zM40 32h5.333v-5.333H40z" style="fill:#fff;fill-opacity:1"></path><path fill="#f0263c" d="M45.333 21.333H40v5.334h5.333zM18.934 32h-.267v2.667c0 .913.092 1.805.267 2.666H24V32zM29.333 37.333H24v5.334h5.333zM40 37.333h-5.333v5.334H40zM40 32v5.333h5.066c.175-.861.267-1.753.267-2.666V32zM29.333 42.667v5.065a13.4 13.4 0 0 0 5.334 0v-5.065zM21.352 42.667A13.4 13.4 0 0 0 24 45.315v-2.648z" style="fill:#f0263c;fill:color(display-p3 .9412 .149 .2353);fill-opacity:1"></path><path fill="#fff" d="M24 42.667v2.648a13.25 13.25 0 0 0 5.333 2.417v-5.065zM34.667 47.732c1.974-.4 3.78-1.249 5.333-2.417v-2.648h-5.333z" style="fill:#fff;fill-opacity:1"></path><path fill="#f0263c" d="M42.649 42.667H40v2.648a13.4 13.4 0 0 0 2.648-2.648" style="fill:#f0263c;fill:color(display-p3 .9412 .149 .2353);fill-opacity:1"></path><path fill="#4dafe3" d="M24 13.333 21.333 12l-2.666 1.333v8c1.64-.716 3.452-1.292 5.333-1.728z" style="fill:#4dafe3;fill:color(display-p3 .302 .6863 .8902);fill-opacity:1"></path><path fill="#191977" d="M29.333 18.783v-5.45L26.667 12 24 13.333v6.272a36 36 0 0 1 5.333-.822" style="fill:#191977;fill:color(display-p3 .098 .098 .4667);fill-opacity:1"></path><path fill="#4dafe3" d="M32 18.667c.88 0 1.772.046 2.667.116v-5.45L32 12l-2.667 1.333v5.45c.895-.07 1.787-.116 2.667-.116M42.667 12 40 13.333v6.272c1.88.436 3.692 1.011 5.333 1.728v-8z" style="fill:#4dafe3;fill:color(display-p3 .302 .6863 .8902);fill-opacity:1"></path><path fill="#191977" d="M40 19.605v-6.272L37.333 12l-2.666 1.333v5.45a36 36 0 0 1 5.333.822" style="fill:#191977;fill:color(display-p3 .098 .098 .4667);fill-opacity:1"></path><path fill="#f0263c" d="M34.667 18.783A34 34 0 0 0 32 18.667c-.88 0-1.772.046-2.667.116a36 36 0 0 0-5.333.822c-1.88.436-3.692 1.012-5.333 1.728h26.666c-1.64-.716-3.452-1.291-5.333-1.728a36 36 0 0 0-5.333-.822" style="fill:#f0263c;fill:color(display-p3 .9412 .149 .2353);fill-opacity:1"></path></g></svg>