<svg xmlns="http://www.w3.org/2000/svg" width="64" height="64" fill="none" viewBox="0 0 64 64"><clipPath id="a" width="64" height="64" x="0" y="0" maskUnits="userSpaceOnUse" style="mask-type:luminance"><path fill="#fff" d="M64 0H0v64h64z" style="fill:#fff;fill-opacity:1"></path></clipPath><g clip-path="url(#a)"><path fill="#f0263c" d="M32 64c17.673 0 32-14.327 32-32S49.673 0 32 0 0 14.327 0 32s14.327 32 32 32" style="fill:#f0263c;fill:color(display-p3 .9412 .149 .2353);fill-opacity:1"></path><path fill="#1e5b00" d="M54.667 16H9.332v32h45.334z" style="fill:#1e5b00;fill:color(display-p3 .1176 .3569 0);fill-opacity:1"></path><path fill="#fff" d="M29.358 32c0-5.2 3.722-9.524 8.646-10.47A10.6 10.6 0 0 0 36 21.333c-5.891 0-10.667 4.776-10.667 10.667S30.11 42.667 36 42.667c.686 0 1.354-.073 2.004-.197-4.924-.946-8.646-5.27-8.646-10.47" style="fill:#fff;fill-opacity:1"></path></g></svg>