<svg xmlns="http://www.w3.org/2000/svg" width="64" height="64" fill="none" viewBox="0 0 64 64"><clipPath id="a" width="64" height="64" x="0" y="0" maskUnits="userSpaceOnUse" style="mask-type:luminance"><path fill="#fff" d="M64 0H0v64h64z" style="fill:#fff;fill-opacity:1"></path></clipPath><g clip-path="url(#a)"><clipPath id="b" width="64" height="64" x="0" y="0" maskUnits="userSpaceOnUse" style="mask-type:luminance"><path fill="#fff" d="M64 0H0v64h64z" style="fill:#fff;fill-opacity:1"></path></clipPath><g clip-path="url(#b)"><path fill="#ffd400" d="M32 64c17.673 0 32-14.327 32-32S49.673 0 32 0 0 14.327 0 32s14.327 32 32 32" style="fill:#ffd400;fill:color(display-p3 1 .8314 0);fill-opacity:1"></path><path fill="#191977" d="m20.69 14.5 8.592 4.296h2.9l2.792 2.793.752 4.296.752 1.504 8.593-2.148 7.089-2.148v1.396l-2.793 4.296-4.296 4.297-3.652 2.148h-2.148v3.545l-1.397 5.8-.751 5.692-.645 2.148H34.33l-.752-2.148v-5.692l-1.396-4.297-.752-2.9-5.048.752-5.693-.752-7.196-1.396-2.793-2.9 8.593-1.396 8.593-2.9h2.148l-2.148-7.197v-1.396z" style="fill:#191977;fill:color(display-p3 .098 .098 .4667);fill-opacity:1"></path></g></g></svg>